<?xml version="1.0" standalone="no"?>
<!DOCTYPE svg PUBLIC "-//W3C//DTD SVG 20010904//EN"
 "http://www.w3.org/TR/2001/REC-SVG-20010904/DTD/svg10.dtd">
<svg version="1.0" xmlns="http://www.w3.org/2000/svg"
 width="512.000000pt" height="512.000000pt" viewBox="0 0 512.000000 512.000000"
 preserveAspectRatio="xMidYMid meet">
<metadata>
Created by potrace 1.14, written by Peter Selinger 2001-2017
</metadata>
<g transform="translate(0.000000,512.000000) scale(0.100000,-0.100000)"
fill="#000000" stroke="none">
<path d="M2595 4948 c-49 -13 -58 -32 -59 -134 l-1 -94 -100 -41 c-95 -39
-216 -90 -260 -109 -11 -5 -164 -68 -340 -140 -568 -235 -532 -218 -546 -251
-13 -32 -11 -41 31 -151 l22 -56 -471 -471 c-547 -548 -511 -494 -406 -606 36
-38 64 -74 61 -79 -3 -6 -37 -87 -75 -181 -39 -93 -75 -179 -80 -190 -5 -11
-25 -58 -44 -105 -327 -789 -320 -767 -278 -803 9 -8 56 -31 106 -51 50 -21
104 -43 120 -51 17 -7 82 -34 145 -60 63 -25 169 -69 235 -96 66 -28 143 -60
170 -71 28 -12 64 -27 80 -34 37 -16 88 -37 95 -39 3 -1 17 -7 33 -13 511
-212 755 -313 897 -372 96 -40 189 -78 205 -85 17 -8 292 -122 612 -254 366
-151 595 -241 616 -241 20 0 40 7 49 18 8 9 111 248 228 531 116 283 216 524
221 535 10 21 11 21 590 20 540 0 582 1 610 18 17 10 30 27 30 40 1 13 2 817
3 1788 2 1129 -1 1772 -7 1785 -26 53 56 49 -1254 50 -667 0 -1224 -3 -1238
-7z"/>
</g>
</svg>
